<svg width="48" height="48" viewBox="0 0 48 48" fill="none" xmlns="http://www.w3.org/2000/svg">
<path d="M33.9593 9C33.9767 9.00013 33.9905 9.01474 33.9905 9.03223C33.9909 9.06438 34.0338 9.07572 34.0501 9.04785L34.0599 9.03223C34.07 9.01467 34.0921 9.00841 34.1097 9.01855L43.4222 14.3955C43.9002 14.6718 44.0635 15.2836 43.7874 15.7617L39.4241 23.3184C39.1479 23.7966 38.5362 23.9608 38.0579 23.6846L35.4905 22.2012C34.8239 21.8166 33.9905 22.2977 33.9905 23.0674V38C33.9905 38.5523 33.5428 39 32.9905 39H15.9905C15.4384 38.9998 14.9905 38.5522 14.9905 38V23.0332C14.9905 22.2633 14.1572 21.782 13.4905 22.167L10.8636 23.6846C10.3853 23.9606 9.77349 23.7966 9.49736 23.3184L5.13407 15.7617C4.85794 15.2835 5.02207 14.6717 5.50028 14.3955L14.7923 9.03027C14.8216 9.01358 14.8593 9.02442 14.8763 9.05371L14.8919 9.08008C14.9192 9.12671 14.9901 9.10772 14.9905 9.05371C14.9905 9.0243 15.0148 9 15.0442 9H18.6341C19.1864 9 19.6236 9.45223 19.7328 9.99361C20.1937 12.2789 22.213 13.9999 24.6341 14C27.0553 14 29.0745 12.279 29.5353 9.99362C29.6445 9.45223 30.0818 9 30.6341 9H33.9593Z" fill="#FFA15D"/>
</svg>
